<?xml version="1.0" encoding="UTF-8"?><svg id="Calque_2" xmlns="http://www.w3.org/2000/svg" viewBox="0 0 465.74 172.28"><defs><style>.cls-1{fill:#1d1d1b;}.cls-1,.cls-2{stroke-width:0px;}.cls-2{fill:#e30613;}</style></defs><g id="Calque_1-2"><path class="cls-2" d="M121.49,24.23c11.39,16.66-.98,48.36-23.29,70.73-20.57,19.83-48.36,30.53-66.91,25.7.58,2.62,1.47,5.07,2.68,7.33,12.29,23.85,42.39,16.46,84.23-11.6h0s0,0,0,0c39.11-38.51,49.7-90.42,21.1-109.24-22.92-16.16-67.21-3.81-99.63,26.43l9.92,10.32c30.37-27.85,64.61-30.34,71.91-19.66"/><path class="cls-2" d="M118.2,116.38c-.05.05-.11.09-.16.14h0s.05-.05.08-.07c.03-.03.05-.04.08-.06h0"/><path class="cls-2" d="M38.96,34.19h0s.06-.06.09-.09c-.03.03-.07.06-.1.09"/><path class="cls-2" d="M26.56,47.65c1.28-1.57,2.61-3.12,3.98-4.65-1.36,1.54-2.71,3.08-3.98,4.65"/><path class="cls-2" d="M32.23,41.07c2.07-2.25,4.24-4.46,6.49-6.63-2.26,2.15-4.41,4.37-6.49,6.63"/><path class="cls-2" d="M22.18,53.33c.25-.35.51-.69.76-1.03-.25.35-.51.69-.76,1.03"/><path class="cls-1" d="M33.98,127.98c-1.21-2.25-2.09-4.71-2.68-7.32-4.18-18.72,7.27-45.75,28.1-65.5l.54-.49-10.36-10.78-9.91-10.32v-.02s-.55.49-.55.49c-.02.02-.04.04-.06.06-.03.03-.06.06-.09.09-.08.08-.16.16-.24.25-2.26,2.17-4.42,4.38-6.49,6.63-.59.63-1.13,1.29-1.7,1.93-1.37,1.54-2.69,3.09-3.97,4.65-1.26,1.54-2.44,3.08-3.62,4.64-.26.35-.51.69-.77,1.03-26.2,35.44-30.43,75.52-5.99,91.74,23.48,16.52,69.25,3.24,101.86-28.54.05-.05.11-.09.16-.14-41.84,28.06-71.94,35.46-84.23,11.6"/><path class="cls-1" d="M193.92,62.6c-2.74-2.71-4.12-6.3-4.12-10.76v-20.86c0-4.4,1.39-7.99,4.17-10.77,2.78-2.78,6.46-4.17,11.06-4.17s8.37,1.39,11.15,4.17c2.77,2.78,4.16,6.37,4.16,10.77v20.86c0,4.46-1.39,8.05-4.16,10.76-2.78,2.72-6.5,4.07-11.15,4.07s-8.36-1.35-11.11-4.07M211.09,58.04c1.58-1.68,2.38-3.91,2.38-6.7v-19.98c0-2.78-.79-5.03-2.38-6.74-1.58-1.71-3.6-2.57-6.06-2.57s-4.46.86-6.02,2.57c-1.55,1.71-2.33,3.96-2.33,6.74v19.98c0,2.78.78,5.01,2.33,6.7,1.56,1.68,3.56,2.52,6.02,2.52s4.47-.84,6.06-2.52"/><path class="cls-1" d="M233.21,62.94c-2.68-2.3-4.03-5.35-4.03-9.17v-.68c0-.65.32-.97.97-.97h4.66c.65,0,.97.32.97.97v.58c0,2.07.76,3.81,2.28,5.23,1.52,1.42,3.51,2.14,5.96,2.14s4.2-.72,5.63-2.14c1.42-1.42,2.14-3.23,2.14-5.43,0-1.68-.46-3.09-1.36-4.22-.91-1.13-1.95-2.02-3.15-2.67-1.2-.65-2.99-1.49-5.38-2.52-2.52-1.03-4.61-2.05-6.26-3.06-1.65-1-3.07-2.43-4.27-4.27-1.2-1.84-1.8-4.19-1.8-7.03,0-4.14,1.28-7.4,3.83-9.8,2.55-2.39,6-3.59,10.33-3.59s7.89,1.23,10.48,3.69c2.59,2.46,3.88,5.72,3.88,9.8v.29c0,.64-.33.97-.97.97h-4.46c-.65,0-.97-.32-.97-.97v-.58c0-2.2-.73-4.01-2.18-5.43-1.45-1.42-3.34-2.14-5.67-2.14s-4.19.73-5.58,2.18c-1.39,1.45-2.08,3.25-2.08,5.39,0,1.55.42,2.86,1.26,3.93.84,1.07,1.87,1.94,3.1,2.62,1.23.68,2.94,1.51,5.14,2.48,2.65,1.16,4.83,2.26,6.54,3.3,1.72,1.04,3.21,2.49,4.51,4.37,1.29,1.88,1.94,4.2,1.94,6.98,0,4.01-1.32,7.21-3.97,9.6-2.65,2.39-6.24,3.59-10.77,3.59s-8.03-1.15-10.71-3.44"/><path class="cls-1" d="M295.72,43.97h-22.12c-.26,0-.39.13-.39.39v7.08c0,2.72.76,4.93,2.28,6.65,1.52,1.71,3.5,2.57,5.97,2.57,2.06,0,3.83-.63,5.28-1.89,1.45-1.26,2.41-2.89,2.87-4.9.19-.58.54-.87,1.07-.87l4.85.19c.25,0,.48.1.68.29.19.19.25.45.19.78-.52,3.82-2.09,6.84-4.7,9.07-2.62,2.23-6.03,3.34-10.23,3.34-4.6,0-8.26-1.35-11.01-4.07-2.75-2.71-4.12-6.3-4.12-10.76v-20.95c0-4.4,1.37-7.97,4.12-10.72,2.75-2.75,6.42-4.12,11.01-4.12s8.35,1.37,11.1,4.12c2.75,2.75,4.12,6.32,4.12,10.72v12.13c0,.65-.32.97-.97.97M275.49,24.62c-1.52,1.71-2.28,3.96-2.28,6.74v6.5c0,.26.13.39.39.39h15.91c.26,0,.39-.13.39-.39v-6.5c0-2.78-.78-5.03-2.33-6.74-1.56-1.71-3.59-2.57-6.11-2.57s-4.45.86-5.97,2.57"/><path class="cls-1" d="M309.92,62.6c-2.74-2.71-4.12-6.3-4.12-10.76v-20.86c0-4.4,1.39-7.99,4.17-10.77,2.78-2.78,6.46-4.17,11.06-4.17s8.37,1.39,11.15,4.17c2.77,2.78,4.16,6.37,4.16,10.77v20.86c0,4.46-1.39,8.05-4.16,10.76-2.78,2.72-6.5,4.07-11.15,4.07s-8.36-1.35-11.11-4.07M327.09,58.04c1.58-1.68,2.38-3.91,2.38-6.7v-19.98c0-2.78-.79-5.03-2.38-6.74-1.58-1.71-3.6-2.57-6.06-2.57s-4.46.86-6.02,2.57c-1.55,1.71-2.33,3.96-2.33,6.74v19.98c0,2.78.78,5.01,2.33,6.7,1.56,1.68,3.56,2.52,6.02,2.52s4.47-.84,6.06-2.52"/><path class="cls-1" d="M211.48,102.68c.23.23.34.5.34.82v7.28c0,.32-.11.6-.34.82-.23.23-.5.34-.82.34h-5.34c-.32,0-.48.16-.48.49v38.6c0,.32-.11.6-.34.82-.23.22-.5.34-.83.34h-11.25c-.32,0-.6-.12-.82-.34-.23-.22-.35-.5-.35-.82v-38.6c0-.32-.16-.49-.48-.49h-2.91c-.32,0-.6-.11-.82-.34-.23-.22-.34-.5-.34-.82v-7.28c0-.32.11-.59.34-.82.22-.23.5-.34.82-.34h2.91c.32,0,.48-.16.48-.48v-2.62c0-5.82,1.47-9.85,4.41-12.08,2.94-2.23,7.62-3.28,14.02-3.15h.39c.32,0,.6.11.82.34.23.23.34.5.34.82l-.09,7.76c0,.32-.11.6-.34.83-.23.22-.5.34-.83.34h-.19c-3.29.06-4.94,2.07-4.94,6.01v1.75c0,.32.16.48.48.48h5.34c.32,0,.59.11.82.34"/><path class="cls-1" d="M243.92,102.73c.52.32.71.81.58,1.45l-1.84,11.35c-.06.71-.52.97-1.35.77-.71-.25-1.59-.38-2.62-.38-.97,0-1.81.13-2.52.38-1.49.26-2.68,1.15-3.59,2.67-.91,1.51-1.35,3.28-1.35,5.28v26.68c0,.32-.12.6-.34.82s-.51.34-.83.34h-11.35c-.32,0-.6-.11-.82-.34-.23-.22-.34-.5-.34-.82v-47.43c0-.32.11-.6.34-.82.23-.22.5-.34.82-.34h11.35c.32,0,.6.12.83.34.22.23.34.5.34.82v3.78c0,.26.05.4.15.44.09.03.21-.05.34-.24,1.74-3.81,4.46-5.73,8.15-5.73,1.74,0,3.1.33,4.07.97"/><path class="cls-1" d="M250.37,94.53c-1.45-1.45-2.18-3.28-2.18-5.48s.71-4.1,2.13-5.53c1.42-1.42,3.27-2.14,5.53-2.14s4.09.71,5.48,2.14c1.39,1.42,2.09,3.27,2.09,5.53s-.71,4.03-2.14,5.48c-1.42,1.46-3.24,2.18-5.43,2.18s-4.03-.73-5.48-2.18M249.5,151.86c-.23-.22-.34-.5-.34-.82v-47.53c0-.32.11-.6.34-.82.23-.22.5-.34.82-.34h11.35c.32,0,.6.12.83.34.22.23.34.5.34.82v47.53c0,.32-.12.6-.34.82-.23.23-.5.34-.83.34h-11.35c-.32,0-.6-.11-.82-.34"/><path class="cls-1" d="M303.23,105.78c2.3,2.82,3.44,6.84,3.44,12.08v18.82c0,5.11-1.13,9.1-3.39,11.98-2.27,2.88-5.63,4.32-10.09,4.32-3.62,0-6.53-1.23-8.73-3.69-.13-.13-.25-.18-.38-.14-.13.03-.19.14-.19.34v1.55c0,.32-.12.6-.34.82-.23.23-.51.34-.83.34h-11.35c-.32,0-.6-.11-.82-.34-.23-.22-.34-.5-.34-.82v-65.57c0-.32.11-.6.34-.82.23-.23.5-.34.82-.34h11.35c.32,0,.6.11.83.34.22.22.34.5.34.82v19.69c0,.13.06.19.19.19.25,0,.52-.16.77-.48,2.2-2.2,4.98-3.3,8.35-3.3,4.39,0,7.74,1.41,10.04,4.22M291.74,114.85c-.84-1.03-1.94-1.55-3.3-1.55-1.16,0-2.17.38-3.01,1.16-.84.78-1.35,1.81-1.55,3.11v19.4c.19,1.29.71,2.33,1.55,3.11.84.77,1.85,1.16,3.01,1.16,1.36,0,2.46-.52,3.3-1.55.84-1.03,1.26-2.36,1.26-3.98v-16.88c0-1.61-.42-2.94-1.26-3.98"/><path class="cls-1" d="M317.59,148.61c-3.27-2.91-4.9-6.89-4.9-11.93v-18.81c0-4.91,1.65-8.86,4.94-11.83,3.3-2.98,7.79-4.47,13.48-4.47s10.28,1.49,13.58,4.47c3.3,2.97,4.95,6.92,4.95,11.83v18.81c0,5.04-1.64,9.02-4.89,11.93-3.27,2.91-7.81,4.37-13.63,4.37s-10.27-1.45-13.53-4.37M334.61,139.59c.91-1.04,1.36-2.36,1.36-3.98v-16.78c0-1.61-.45-2.94-1.36-3.97s-2.07-1.55-3.49-1.55-2.57.52-3.44,1.55c-.88,1.04-1.31,2.36-1.31,3.97v16.78c0,1.62.44,2.94,1.31,3.98.87,1.03,2.02,1.55,3.44,1.55s2.58-.52,3.49-1.55"/><path class="cls-1" d="M378.89,102.68c.23-.23.5-.34.82-.34h11.35c.32,0,.6.11.82.34s.34.5.34.82v47.53c0,.32-.12.6-.34.82s-.5.34-.82.34h-11.35c-.32,0-.6-.12-.82-.34s-.34-.5-.34-.82v-1.65c0-.2-.07-.32-.19-.39-.13-.06-.26,0-.39.19-.97,1.36-2.18,2.31-3.64,2.86-1.45.55-3.15.83-5.09.83-3.88,0-7.08-1.18-9.61-3.54-2.52-2.36-3.78-6-3.78-10.91v-34.92c0-.32.11-.59.34-.82.23-.23.5-.34.83-.34h11.35c.32,0,.6.11.82.34.23.23.34.5.34.82v31.91c0,1.88.37,3.31,1.12,4.32.74,1,1.83,1.51,3.25,1.51s2.55-.55,3.39-1.65c.84-1.1,1.26-2.59,1.26-4.46v-31.63c0-.32.11-.59.34-.82"/><path class="cls-1" d="M425.98,102.73c.52.32.71.81.58,1.45l-1.84,11.35c-.06.71-.52.97-1.35.77-.71-.25-1.59-.38-2.62-.38-.97,0-1.81.13-2.52.38-1.49.26-2.68,1.15-3.59,2.67-.91,1.51-1.35,3.28-1.35,5.28v26.68c0,.32-.12.6-.34.82s-.51.34-.83.34h-11.35c-.32,0-.6-.11-.82-.34-.23-.22-.34-.5-.34-.82v-47.43c0-.32.11-.6.34-.82.23-.22.5-.34.82-.34h11.35c.32,0,.6.12.83.34.22.23.34.5.34.82v3.78c0,.26.05.4.15.44.09.03.21-.05.34-.24,1.74-3.81,4.46-5.73,8.15-5.73,1.74,0,3.1.33,4.07.97"/><path class="cls-1" d="M452.41,102.68c.23-.23.5-.34.82-.34h11.35c.32,0,.6.11.82.34.22.23.34.5.34.82v46.37c0,7.18-1.7,12.7-5.09,16.58-3.4,3.88-9.49,5.82-18.28,5.82-1.75,0-3.11-.03-4.08-.09-.77-.07-1.16-.49-1.16-1.26v-9.51c0-.84.42-1.2,1.26-1.07,3.81.13,6.71-.24,8.68-1.11,1.97-.88,3.3-2.18,3.97-3.93.68-1.75,1.02-4.04,1.02-6.89,0-.19-.07-.29-.19-.29s-.26.1-.39.29c-1.17,1.55-2.57,2.64-4.22,3.25-1.64.61-3.25.92-4.8.92-4.46,0-7.79-1.44-9.99-4.32-2.2-2.88-3.3-6.87-3.3-11.98v-18.43c0-5.24,1.11-9.26,3.34-12.08,2.23-2.81,5.54-4.22,9.94-4.22,3.94,0,6.95,1.45,9.02,4.37.13.19.26.26.39.19.13-.06.19-.19.19-.39v-2.23c0-.32.11-.6.34-.82M450.76,139.2c.87-1.04,1.31-2.36,1.31-3.98v-16.39c0-1.61-.44-2.94-1.31-3.98-.87-1.03-1.99-1.55-3.34-1.55s-2.46.52-3.3,1.55c-.84,1.04-1.26,2.36-1.26,3.98v16.39c0,1.62.42,2.94,1.26,3.98.84,1.03,1.94,1.55,3.3,1.55s2.47-.52,3.34-1.55"/></g></svg>